HIERARCHY
ROOT hips
{
  OFFSET 0 10.6860622 2.3727825e-15
  CHANNELS 6 Xposition Yposition Zposition Yrotation Xrotation Zrotation
  JOINT leftUpperLeg
  {
    OFFSET 0.6642549969 -0.9402397400000004 0
    CHANNELS 3 Yrotation Xrotation Zrotation
    JOINT leftLowerLeg
    {
      OFFSET 0 -3.997221335632195 0
      CHANNELS 3 Yrotation Xrotation Zrotation
      JOINT leftFoot
      {
        OFFSET -0.13777839790000004 -4.6145792000000005 -0.22186036399999998
        CHANNELS 3 Yrotation Xrotation Zrotation
        JOINT leftToes
        {
          OFFSET -0.03777410834999995 -0.9130806927000008 0.85230013
          CHANNELS 3 Yrotation Xrotation Zrotation
          End Site
          {
            OFFSET -0.03777410834999995 -0.9130806927000008 0.85230013
          }
        }
      }
    }
  }
  JOINT rightUpperLeg
  {
    OFFSET -0.6642778626 -0.9402397400000004 0
    CHANNELS 3 Yrotation Xrotation Zrotation
    JOINT rightLowerLeg
    {
      OFFSET 0 -3.997221452859387 0
      CHANNELS 3 Yrotation Xrotation Zrotation
      JOINT rightFoot
      {
        OFFSET 0.1377926176 -4.6145792000000005 -0.22185782299999995
        CHANNELS 3 Yrotation Xrotation Zrotation
        JOINT rightToes
        {
          OFFSET 0.037780746850000047 -0.9130806927000008 0.85230167
          CHANNELS 3 Yrotation Xrotation Zrotation
          End Site
          {
            OFFSET 0.037780746850000047 -0.9130806927000008 0.85230167
          }
        }
      }
    }
  }
  JOINT spine
  {
    OFFSET 0 0.13988381660000015 0
    CHANNELS 3 Yrotation Xrotation Zrotation
    JOINT chest
    {
      OFFSET 0 0.6191039003973773 0
      CHANNELS 3 Yrotation Xrotation Zrotation
      JOINT upperChest
      {
        OFFSET 0 0.9855186130586943 0
        CHANNELS 3 Yrotation Xrotation Zrotation
        JOINT leftShoulder
        {
          OFFSET 0.1807663869 1.5087829790000005 0
          CHANNELS 3 Yrotation Xrotation Zrotation
          JOINT leftUpperArm
          {
            OFFSET 0.5985063006419806 0 0
            CHANNELS 3 Yrotation Xrotation Zrotation
            JOINT leftLowerArm
            {
              OFFSET 2.2993332369501065 0 0
              CHANNELS 3 Yrotation Xrotation Zrotation
              JOINT leftHand
              {
                OFFSET 2.395047042602395 0 0
                CHANNELS 3 Yrotation Xrotation Zrotation
                JOINT leftIndexProximal
                {
                  OFFSET 0.5766295810000004 0.04556643899499946 0.17265095988184
                  CHANNELS 3 Yrotation Xrotation Zrotation
                  JOINT leftIndexIntermediate
                  {
                    OFFSET 0.2957229000000008 -0.019352197700001517 -0.007932640616999987
                    CHANNELS 3 Yrotation Xrotation Zrotation
                    JOINT leftIndexDistal
                    {
                      OFFSET 0.19008243099999922 -0.012484908149998475 -0.002786250786000012
                      CHANNELS 3 Yrotation Xrotation Zrotation
                      End Site
                      {
                        OFFSET 0.19008243099999922 -0.012484908149998475 -0.002786250786000012
                      }
                    }
                  }
                }
                JOINT leftMiddleProximal
                {
                  OFFSET 0.5834975091000001 0.0524350405149987 0.02204081888183999
                  CHANNELS 3 Yrotation Xrotation Zrotation
                  JOINT leftMiddleIntermediate
                  {
                    OFFSET 0.33880573540000003 -0.019871473270000717 -0.00000971183179999946
                    CHANNELS 3 Yrotation Xrotation Zrotation
                    JOINT leftMiddleDistal
                    {
                      OFFSET 0.20676022730000088 -0.012221336379999448 0.0001471936708000235
                      CHANNELS 3 Yrotation Xrotation Zrotation
                      End Site
                      {
                        OFFSET 0.20676022730000088 -0.012221336379999448 0.0001471936708000235
                      }
                    }
                  }
                }
                JOINT leftLittleProximal
                {
                  OFFSET 0.5344154683999995 -0.012880921405001189 -0.24414037221816004
                  CHANNELS 3 Yrotation Xrotation Zrotation
                  JOINT leftLittleIntermediate
                  {
                    OFFSET 0.21758961730000093 -0.011650919939999227 0.011893592810000034
                    CHANNELS 3 Yrotation Xrotation Zrotation
                    JOINT leftLittleDistal
                    {
                      OFFSET 0.1475273964999999 -0.008152365682999818 0.006001092492999946
                      CHANNELS 3 Yrotation Xrotation Zrotation
                      End Site
                      {
                        OFFSET 0.1475273964999999 -0.008152365682999818 0.006001092492999946
                      }
                    }
                  }
                }
                JOINT leftRingProximal
                {
                  OFFSET 0.5799399463000003 0.026911854694997794 -0.12150566991816003
                  CHANNELS 3 Yrotation Xrotation Zrotation
                  JOINT leftRingIntermediate
                  {
                    OFFSET 0.26167887460000006 -0.013480186499999602 0.010996293000000053
                    CHANNELS 3 Yrotation Xrotation Zrotation
                    JOINT leftRingDistal
                    {
                      OFFSET 0.17667108799999987 -0.008990287899999228 0.0055541023999999065
                      CHANNELS 3 Yrotation Xrotation Zrotation
                      End Site
                      {
                        OFFSET 0.17667108799999987 -0.008990287899999228 0.0055541023999999065
                      }
                    }
                  }
                }
                JOINT leftThumbProximal
                {
                  OFFSET 0.11018806699999972 -0.09448718900500053 0.17047963138184
                  CHANNELS 3 Yrotation Xrotation Zrotation
                  JOINT leftThumbIntermediate
                  {
                    OFFSET 0.31062601459999983 -0.08126270900000132 0.15443142000000007
                    CHANNELS 3 Yrotation Xrotation Zrotation
                    JOINT leftThumbDistal
                    {
                      OFFSET 0.21627175790000086 -0.08833193599999878 0.018771167799999988
                      CHANNELS 3 Yrotation Xrotation Zrotation
                      End Site
                      {
                        OFFSET 0.21627175790000086 -0.08833193599999878 0.018771167799999988
                      }
                    }
                  }
                }
              }
            }
          }
        }
        JOINT neck
        {
          OFFSET 0 1.5463305265074576 0
          CHANNELS 3 Yrotation Xrotation Zrotation
          JOINT head
          {
            OFFSET 0 0.8456443600000344 0
            CHANNELS 3 Yrotation Xrotation Zrotation
            JOINT leftEye
            {
              OFFSET 0.30408573140000006 0.5104519199999995 0.1276382305
              CHANNELS 3 Yrotation Xrotation Zrotation
              End Site
              {
                OFFSET 0.30408573140000006 0.5104519199999995 0.1276382305
              }
            }
            JOINT rightEye
            {
              OFFSET -0.30409491089999996 0.5104519199999995 0.1276379445
              CHANNELS 3 Yrotation Xrotation Zrotation
              End Site
              {
                OFFSET -0.30409491089999996 0.5104519199999995 0.1276379445
              }
            }
            JOINT jaw
            {
              OFFSET -3.155239131000001e-7 -0.11984121820000082 0.60178107
              CHANNELS 3 Yrotation Xrotation Zrotation
              End Site
              {
                OFFSET -3.155239131000001e-7 -0.11984121820000082 0.60178107
              }
            }
          }
        }
        JOINT rightShoulder
        {
          OFFSET -0.1807303465 1.5087829790000005 0
          CHANNELS 3 Yrotation Xrotation Zrotation
          JOINT rightUpperArm
          {
            OFFSET -0.5985063796536958 0 0
            CHANNELS 3 Yrotation Xrotation Zrotation
            JOINT rightLowerArm
            {
              OFFSET -2.2993322059002854 0 0
              CHANNELS 3 Yrotation Xrotation Zrotation
              JOINT rightHand
              {
                OFFSET -2.395045314457259 0 0
                CHANNELS 3 Yrotation Xrotation Zrotation
                JOINT rightIndexProximal
                {
                  OFFSET -0.5764487688300002 0.0441371204405987 0.17361932004999997
                  CHANNELS 3 Yrotation Xrotation Zrotation
                  JOINT rightIndexIntermediate
                  {
                    OFFSET -0.29573011380000047 -0.01934826376999843 -0.007698921482999974
                    CHANNELS 3 Yrotation Xrotation Zrotation
                    JOINT rightIndexDistal
                    {
                      OFFSET -0.19008373999999884 -0.012503266380000655 -0.0026365778999999897
                      CHANNELS 3 Yrotation Xrotation Zrotation
                      End Site
                      {
                        OFFSET -0.19008373999999884 -0.012503266380000655 -0.0026365778999999897
                      }
                    }
                  }
                }
                JOINT rightMiddleProximal
                {
                  OFFSET -0.5834852037300005 0.05211639405060153 0.02307162440000001
                  CHANNELS 3 Yrotation Xrotation Zrotation
                  JOINT rightMiddleIntermediate
                  {
                    OFFSET -0.33880114510000003 -0.019952774050000954 0.0002455003561999819
                    CHANNELS 3 Yrotation Xrotation Zrotation
                    JOINT rightMiddleDistal
                    {
                      OFFSET -0.20675694929999955 -0.012273788999999091 0.00030209124000002766
                      CHANNELS 3 Yrotation Xrotation Zrotation
                      End Site
                      {
                        OFFSET -0.20675694929999955 -0.012273788999999091 0.00030209124000002766
                      }
                    }
                  }
                }
                JOINT rightLittleProximal
                {
                  OFFSET -0.5346811737299992 -0.011214256288399227 -0.24363941305000003
                  CHANNELS 3 Yrotation Xrotation Zrotation
                  JOINT rightLittleIntermediate
                  {
                    OFFSET -0.21757715980000092 -0.011771559690000988 0.01201554387
                    CHANNELS 3 Yrotation Xrotation Zrotation
                    JOINT rightLittleDistal
                    {
                      OFFSET -0.1475201849000004 -0.00822055339600003 0.006082065407000015
                      CHANNELS 3 Yrotation Xrotation Zrotation
                      End Site
                      {
                        OFFSET -0.1475201849000004 -0.00822055339600003 0.006082065407000015
                      }
                    }
                  }
                }
                JOINT rightRingProximal
                {
                  OFFSET -0.5800810755299999 0.027657985680600072 -0.12066365025000003
                  CHANNELS 3 Yrotation Xrotation Zrotation
                  JOINT rightRingIntermediate
                  {
                    OFFSET -0.26166445029999974 -0.013623118409999302 0.011164098990000045
                    CHANNELS 3 Yrotation Xrotation Zrotation
                    JOINT rightRingDistal
                    {
                      OFFSET -0.17666387530000027 -0.009072900100000503 0.005668185599999959
                      CHANNELS 3 Yrotation Xrotation Zrotation
                      End Site
                      {
                        OFFSET -0.17666387530000027 -0.009072900100000503 0.005668185599999959
                      }
                    }
                  }
                }
                JOINT rightThumbProximal
                {
                  OFFSET -0.10997596379000074 -0.09577489355940072 0.16989765924999997
                  CHANNELS 3 Yrotation Xrotation Zrotation
                  JOINT rightThumbIntermediate
                  {
                    OFFSET -0.31036620999999986 -0.08229339117999834 0.15440884469999996
                    CHANNELS 3 Yrotation Xrotation Zrotation
                    JOINT rightThumbDistal
                    {
                      OFFSET -0.21631306399999906 -0.08825326400000111 0.018656797720000014
                      CHANNELS 3 Yrotation Xrotation Zrotation
                      End Site
                      {
                        OFFSET -0.21631306399999906 -0.08825326400000111 0.018656797720000014
                      }
                    }
                  }
                }
              }
            }
          }
        }
      }
    }
  }
}
MOTION
Frames: 4
Frame Time: 0.03333333333333333
-0.03200918436050415 -6.509346349169922 -0.07272791862487793 -2.8345595743244942 -14.189319335852494 14.982679517105915 93.45785245435212 -74.37895298524674 -74.62077611594583 -175.7609634384044 50.319435248385986 -179.84557293018318 -0.4667143271986373 -25.27249529420775 9.358263765122587 -0.02541084972126751 0.0030065591025156503 0.06299397976622946 18.328884679731058 -40.23330957236483 -27.49382264993155 177.34325070812054 29.923911445333037 -178.32586020774917 -4.3255996532695535 -55.64992295939037 9.79059213538325 0.8487963384319994 -43.2555046205598 -2.21597304660326 -2.2553677174661053 9.05116561063101 -3.420813620518673 -16.31794878290413 35.26672707365354 -13.40039615849785 0 0 0 -14.0333437069754 -3.3363927479158058 -4.806942787361858 -17.96244410686256 -15.059308430597557 -52.05058901270591 -92.90855211926201 0.3681274242050588 0.7506026653006145 -16.58079803803175 63.72491106270837 -51.87295964149115 6.962455805620424 1.0445556826048326 -10.727274749211995 0.5745384666201809 0.06170646886106756 -26.000555664898236 -1.281281483810888e-10 1.793762613445802e-24 1.6042536111691759e-12 7.102206863196151 1.2581643279577635 -25.598152635100035 -2.531821459156483 -0.6200762071273841 -23.03511900499528 1.139979627027678e-10 6.3611093629270335e-15 -1.43444452663829e-12 7.631346661665062 -1.5432693411402294 -27.04889347206771 -8.350491552645725 -1.9714246855651874 -38.181787540668324 4.171116073730225e-11 5.950788745874541e-26 -1.634838641478621e-13 7.739270816952545 -0.12829815380312817 -31.484294471962556 -4.020171045662148 -0.8531759443849521 -27.469469688186642 7.902567988186446e-7 -1.8819428561306963e-7 -0.00000291960996562177 9.941889775754442 -4.448417639347411 18.915825874400607 6.623594877857814 2.264451610894504 2.470334242287579 -0.000011179391800526109 0.00000217150869655112 -0.000005998239523096715 5.286621939743648 -9.2278708580336 -4.317864700798132 1.9560222796720108 -22.782212999081285 -1.8083669854978726 0 0 0 0 0 0 0 0 0 14.00349446995584 -3.3224287624859055 4.659700659480548 35.68599978779678 -2.545812835335039 56.24496210003789 53.07449061112937 0.4479021675525287 -0.20292344912226856 16.35342987908253 34.00599745901802 -17.813867615556102 -6.64830063903133 1.5350033240565188 38.08169063397638 -0.9243386757937118 0.09623729726523989 17.701358130031032 3.933694872703174e-10 3.1805546814635168e-15 -4.874754472204794e-12 -7.364290910763036 0.10282801954585437 29.0187520520362 1.0163611527805965 -0.22919566634344862 8.208743490014982 -6.394805431444331e-7 -0.0000015819178252513744 8.264346128066769e-9 -8.983276184866742 2.2447498330893287 11.029029116143162 7.747288895919656 -1.1154401366274342 21.739081229321567 1.6628260911929426e-9 -3.1805543023118527e-15 -2.179830267765673e-11 -7.929344773801534 1.5944719467025052 22.83220917727641 3.614107218599907 -0.5832550811269553 18.726503023288405 -4.3803240153668535e-10 2.0219334966109398e-23 5.2894833502657416e-12 -8.198539527169583 3.7993243164327963 7.29798143213744 -6.119062018006498 2.0811003135187787 -2.89366426504376 0.0000037103823705209336 -0.000003934571476908445 0.000005358235384318407
-0.031055530533194542 -6.510020596911621 -0.07337898015975952 -2.8412780648392766 -14.221642931469594 14.968820869098062 93.40110309436187 -74.38288507968092 -74.55787502036497 -175.75795189658422 50.311086872715144 -179.84376955009893 -0.4610701586387486 -25.268686695196845 9.37406191545249 -0.025415825620413817 0.002990473306637048 0.06298894383882317 18.326475642269127 -40.205665058502156 -27.50085179827758 177.34674028917684 29.916281165043884 -178.32413948415422 -4.274461964946651 -55.650328477145585 9.763538237119802 0.8487963384319994 -43.2555046205598 -2.21597304660326 -2.2556436184234143 9.056341640875514 -3.4197381913085256 -16.32805371815414 35.286020169069694 -13.408748397562638 0 0 0 -14.0333437069754 -3.3363927479158058 -4.806942787361858 -17.916674059538302 -15.116265103511328 -52.120586470867266 -92.90403949685623 0.3687891925059614 0.7507040270872932 -16.57712292096706 63.74674399575753 -51.90729530481851 6.9558377086170715 1.061306668596249 -10.775197066795728 0.5745528199760472 0.06172136321777066 -26.00262521373005 -1.281281483810888e-10 1.793762613445802e-24 1.6042536111691759e-12 7.098790994786952 1.2639491917414787 -25.60804185462212 -2.5318336142666165 -0.6200788219623046 -23.0351403005333 1.139979627027678e-10 6.3611093629270335e-15 -1.43444452663829e-12 7.627994936192411 -1.538869961851661 -27.08784595853905 -8.350469925824443 -1.9714364319054265 -38.181804621775946 4.171116073730225e-11 5.950788745874541e-26 -1.634838641478621e-13 7.740126990239485 -0.12970137436796259 -31.501186399753326 -4.020003194469248 -0.853453398229017 -27.47494331692008 7.902567988186446e-7 -1.8819428561306963e-7 -0.00000291960996562177 9.941874844964486 -4.448414213933999 18.91582749461402 6.623363049531023 2.2642973843243404 2.470334587897029 -0.000011179391800526109 0.00000217150869655112 -0.000005998239523096715 5.285367460801586 -9.23885698440072 -4.319415119689933 1.965389128704247 -22.78928240711577 -1.8410883102649531 0 0 0 0 0 0 0 0 0 14.00349446995584 -3.3224287624859055 4.659700659480548 35.6925802821418 -2.569757293989533 56.23285040509918 53.04696135644048 0.4478123584935065 -0.2026273171325766 16.386832257018657 33.97069536584409 -17.803804392297586 -6.650539586471235 1.5415006418174593 38.07459083045644 -0.9241334212764585 0.09610202064249886 17.69286904212614 3.933694872703174e-10 3.1805546814635168e-15 -4.874754472204794e-12 -7.3630095237547755 0.10112413144307032 29.011675649065218 1.0163519760842976 -0.2292006556231133 8.208743490014982 -6.394805431444331e-7 -0.0000015819178252513744 8.264346128066769e-9 -8.983603885322188 2.246957680094557 11.058235706688997 7.749597213215354 -1.1174610823414677 21.75403833351691 1.6628260911929426e-9 -3.1805543023118527e-15 -2.179830267765673e-11 -7.924599528821311 1.591245570040699 22.842291272649533 3.6138004374591346 -0.5821816186932862 18.71269171053833 -4.3803240153668535e-10 2.0219334966109398e-23 5.2894833502657416e-12 -8.189091065119273 3.802169799036506 7.276514122894843 -6.154170613991406 2.0993007902202767 -2.897656362303589 0.0000037103823705209336 -0.000003934571476908445 0.000005358235384318407
-0.02925175428390503 -6.510705811907959 -0.07461146265268326 -2.859320529961568 -14.276962747024111 14.951387071012025 93.27041460733697 -74.38532092558741 -74.42398410458031 -175.75238953460234 50.303162352656386 -179.84010614545514 -0.4390676676502439 -25.265374802917492 9.390164836462366 -0.025416636038304234 0.003000127243765997 0.06299405980745974 18.34360151646665 -40.15864474315758 -27.52537624219474 177.35481450117334 29.907353317050205 -178.32033428873933 -4.184660439427999 -55.63962905670295 9.722632616911635 0.8487963384319994 -43.2555046205598 -2.21597304660326 -2.2564301495270525 9.066036847829922 -3.418263161267872 -16.345108669382455 35.32256080639187 -13.421883137062906 0 0 0 -14.0333437069754 -3.3363927479158058 -4.806942787361858 -17.868509735176463 -15.207166449930744 -52.19612198740526 -92.88686738370058 0.369550614321106 0.7508219916448549 -16.456746979556335 63.78100529733569 -51.85952959374311 6.950761460517524 1.0744635779536353 -10.84286292813382 0.5745011692378714 0.06154385156782247 -25.986051903343785 -1.281281483810888e-10 1.793762613445802e-24 1.6042536111691759e-12 7.09153909856997 1.260786259939033 -25.61398490097088 -2.5318472621093013 -0.6200886942982401 -23.034748579000812 1.139979627027678e-10 6.3611093629270335e-15 -1.43444452663829e-12 7.623554661604198 -1.5328807224515104 -27.139096146988564 -8.35047753282619 -1.971422122727328 -38.18180942013314 4.171116073730225e-11 5.950788745874541e-26 -1.634838641478621e-13 7.735079922335494 -0.12554586095888337 -31.54038164155321 -4.019887301080412 -0.8536245454746035 -27.478666180008265 7.902567988186446e-7 -1.8819428561306963e-7 -0.00000291960996562177 9.940708244918133 -4.448805567519414 18.91561326268576 6.628338516749802 2.267556865982156 2.47050416755512 -0.000011179391800526109 0.00000217150869655112 -0.000005998239523096715 5.283186274707213 -9.25419280938024 -4.320935408734488 1.9534375057119038 -22.799095360284376 -1.8701505325475973 0 0 0 0 0 0 0 0 0 14.00349446995584 -3.3224287624859055 4.659700659480548 35.707318430154295 -2.616092927364067 56.20672181619196 52.980823156444856 0.4475294039341724 -0.2018441221584605 16.46728637168191 33.92527438840619 -17.76534066705934 -6.6551434152804365 1.5543932733960855 38.0596333422587 -0.9235648226615981 0.09567432613752509 17.666866448894172 3.933694872703174e-10 3.1805546814635168e-15 -4.874754472204794e-12 -7.369030528418672 0.10422688992819658 28.996898233492498 1.0163460005610983 -0.22922741630498097 8.21022295359302 -6.394805431444331e-7 -0.0000015819178252513744 8.264346128066769e-9 -8.975115494968406 2.2458672134467372 11.104511706908113 7.75600044666329 -1.1230205315351856 21.795439558504505 1.6628260911929426e-9 -3.1805543023118527e-15 -2.179830267765673e-11 -7.917322363716627 1.5863400352056825 22.857560356007287 3.6136086970634893 -0.5815189494524521 18.703952185263223 -4.3803240153668535e-10 2.0219334966109398e-23 5.2894833502657416e-12 -8.157481972185227 3.8042738621266734 7.2302813951930185 -6.182874644447644 2.114176324816732 -2.900939600976838 0.0000037103823705209336 -0.000003934571476908445 0.000005358235384318407
-0.02726508304476738 -6.510913712908936 -0.07556340843439102 -2.8807711534128506 -14.308551722976647 14.942110776514687 93.18505779895024 -74.3793081025125 -74.3439383821775 -175.7466732108603 50.300831233733405 -179.83605503884564 -0.40428279264948014 -25.268105124903837 9.394483021754157 -0.025418975578016628 0.0029881883782378904 0.06300305777576337 18.39317274541278 -40.131093163976445 -27.580229590593326 177.36596114272118 29.902172695386238 -178.31518812243587 -4.08258279571517 -55.61959970686293 9.680321119299574 0.8487963384319994 -43.2555046205598 -2.21597304660326 -2.25516735377682 9.073593307988817 -3.4165463013545896 -16.346086795626135 35.352682002064746 -13.423516681598626 0 0 0 -14.0333437069754 -3.3363927479158058 -4.806942787361858 -17.861253480917 -15.278955285932366 -52.22641927713166 -92.85642846753717 0.3700133959558902 0.7508059758246587 -16.23442900559246 63.801025107112004 -51.65564373502994 6.953220485136988 1.0657709663010282 -10.865985919534996 0.5743482637544242 0.06117448753230623 -25.949027149417677 -1.281281483810888e-10 1.793762613445802e-24 1.6042536111691759e-12 7.086074244170688 1.2362901603705305 -25.59732953231488 -2.53175882675752 -0.6199572588218606 -23.037363957693557 1.139979627027678e-10 6.3611093629270335e-15 -1.43444452663829e-12 7.617048558622919 -1.541381176997983 -27.142956401782488 -8.350474151936561 -1.971420200598936 -38.18178542834813 4.171116073730225e-11 5.950788745874541e-26 -1.634838641478621e-13 7.7324289034494855 -0.1039161758393545 -31.57746349628616 -4.019790811890569 -0.8537389104764456 -27.480795729582958 7.902567988186446e-7 -1.8819428561306963e-7 -0.00000291960996562177 9.950161803855329 -4.445647341453001 18.917227405632357 6.626055297517969 2.266059669518303 2.470407893998296 -0.000011179391800526109 0.00000217150869655112 -0.000005998239523096715 5.285421158691709 -9.26101711612304 -4.3266075366118315 1.917146128742497 -22.81874376442484 -1.8667841537374328 0 0 0 0 0 0 0 0 0 14.00349446995584 -3.3224287624859055 4.659700659480548 35.725350641848685 -2.650406037346193 56.18521300751904 52.91381730679639 0.4472989847461578 -0.20101532924337343 16.543987880344332 33.88875098497191 -17.72908313216487 -6.655924054749864 1.557800446423556 38.06137931381669 -0.9228983728245017 0.0951966724703695 17.63816630961838 3.933694872703174e-10 3.1805546814635168e-15 -4.874754472204794e-12 -7.376428660933358 0.11086845351715173 28.99795503095568 1.0164135453131182 -0.22902696465826836 8.199246094598697 -6.394805431444331e-7 -0.0000015819178252513744 8.264346128066769e-9 -8.960680698833523 2.2395948565374635 11.119675791363528 7.762036339044848 -1.1283041689225053 21.83458254519755 1.6628260911929426e-9 -3.1805543023118527e-15 -2.179830267765673e-11 -7.915431215138394 1.5846444319177437 22.86503347119779 3.613525184848894 -0.5811825453193806 18.69960618839663 -4.3803240153668535e-10 2.0219334966109398e-23 5.2894833502657416e-12 -8.123264525744311 3.804630244203962 7.186958944315879 -6.180286484099084 2.11282345393328 -2.900610796311721 0.0000037103823705209336 -0.000003934571476908445 0.000005358235384318407
